<?xml version="1.0" encoding="utf-8"?>
<svg version="1.1" xmlns:xlink="http://www.w3.org/1999/xlink" width="25px" height="25px" viewBox="37 129  25 25" xmlns="http://www.w3.org/2000/svg">
  <path d="M 49.5 129  C 56.5 129  62 134.5  62 141.5  C 62 148.5  56.5 154  49.5 154  C 42.5 154  37 148.5  37 141.5  C 37 134.5  42.5 129  49.5 129  Z " fill-rule="nonzero" fill="#ffffff" stroke="none" />
  <path d="M 49.5 129.5  C 56.22 129.5  61.5 134.78  61.5 141.5  C 61.5 148.22  56.22 153.5  49.5 153.5  C 42.78 153.5  37.5 148.22  37.5 141.5  C 37.5 134.78  42.78 129.5  49.5 129.5  Z " stroke-width="1" stroke="#797979" fill="none" />
  <path d="M 49.5 147.75  C 46 147.75  43.25 145  43.25 141.5  C 43.25 138  46 135.25  49.5 135.25  C 53 135.25  55.75 138  55.75 141.5  C 55.75 145  53 147.75  49.5 147.75  " fill-rule="nonzero" fill="#797979" stroke="none" />
</svg>