<?xml version="1.0" encoding="utf-8"?>
<svg version="1.1" xmlns:xlink="http://www.w3.org/1999/xlink" width="42px" height="41px" xmlns="http://www.w3.org/2000/svg">
  <g transform="matrix(1 0 0 1 -26 -11 )">
    <path d="M 35 11.7142857142857  C 35 13.9564732142857  34.2799479166667 16.0308779761905  32.83984375 17.9375  C 33.6966145833333 18.1510416666667  34.5123697916667 18.4408482142857  35.287109375 18.8069196428571  C 36.0618489583333 19.1729910714286  36.873046875 19.7297247023809  37.720703125 20.4771205357143  C 38.568359375 21.2245163690476  39.29296875 22.1053757440476  39.89453125 23.1196986607143  C 40.49609375 24.1340215773809  40.9973958333333 25.4457775297619  41.3984375 27.0549665178571  C 41.7994791666667 28.6641555059524  42 30.4678199404762  42 32.4659598214286  C 42 34.8149181547619  41.0885416666667 36.8244977678571  39.265625 38.4946986607143  C 37.4427083333333 40.1648995535714  35.24609375 41  32.67578125 41  L 9.32421875 41  C 6.75390625 41  4.55729166666667 40.1648995535714  2.734375 38.4946986607143  C 0.911458333333333 36.8244977678571  0 34.8149181547619  0 32.4659598214286  C 0 30.4678199404762  0.200520833333333 28.6641555059524  0.6015625 27.0549665178571  C 1.00260416666667 25.4457775297619  1.50390625 24.1340215773809  2.10546875 23.1196986607143  C 2.70703125 22.1053757440476  3.431640625 21.2245163690476  4.279296875 20.4771205357143  C 5.126953125 19.7297247023809  5.93815104166667 19.1729910714286  6.712890625 18.8069196428571  C 7.48763020833333 18.4408482142857  8.30338541666667 18.1510416666667  9.16015625 17.9375  C 7.72005208333333 16.0308779761905  7 13.9564732142857  7 11.7142857142857  C 7 10.1279761904762  7.369140625 8.61411830357143  8.107421875 7.17271205357143  C 8.845703125 5.73130580357143  9.84375 4.484375  11.1015625 3.43191964285714  C 12.359375 2.37946428571429  13.849609375 1.54436383928571  15.572265625 0.926618303571427  C 17.294921875 0.308872767857141  19.1041666666667 0  21 0  C 22.8958333333333 0  24.705078125 0.308872767857141  26.427734375 0.926618303571427  C 28.150390625 1.54436383928571  29.640625 2.37946428571429  30.8984375 3.43191964285714  C 32.15625 4.484375  33.154296875 5.73130580357143  33.892578125 7.17271205357143  C 34.630859375 8.61411830357143  35 10.1279761904762  35 11.7142857142857  Z M 28.423828125 5.50251116071429  C 26.373046875 3.78655133928571  23.8984375 2.92857142857143  21 2.92857142857143  C 18.1015625 2.92857142857143  15.626953125 3.78655133928571  13.576171875 5.50251116071429  C 11.525390625 7.21847098214286  10.5 9.2890625  10.5 11.7142857142857  C 10.5 14.1395089285714  11.525390625 16.2101004464286  13.576171875 17.9260602678571  C 15.626953125 19.6420200892857  18.1015625 20.5  21 20.5  C 23.8984375 20.5  26.373046875 19.6420200892857  28.423828125 17.9260602678571  C 30.474609375 16.2101004464286  31.5 14.1395089285714  31.5 11.7142857142857  C 31.5 9.2890625  30.474609375 7.21847098214286  28.423828125 5.50251116071429  Z M 9.32421875 38  L 32.67578125 38  C 34.2799479166667 38.0714285714286  35.6516927083333 37.526134672619  36.791015625 36.435546875  C 37.9303385416667 35.3449590773809  38.5 34.0217633928571  38.5 32.4659598214286  C 38.5 28.8204985119048  37.7845052083333 25.9453125  36.353515625 23.8404017857143  C 34.9225260416667 21.7354910714286  32.8671875 20.629650297619  30.1875 20.5228794642857  C 27.5442708333333 22.4600074404762  24.4817708333333 23.4285714285714  21 23.4285714285714  C 17.5182291666667 23.4285714285714  14.4557291666667 22.4600074404762  11.8125 20.5228794642857  C 9.1328125 20.629650297619  7.07747395833333 21.7354910714286  5.646484375 23.8404017857143  C 4.21549479166667 25.9453125  3.5 28.8204985119048  3.5 32.4659598214286  C 3.5 34.0217633928571  4.06966145833333 35.3449590773809  5.208984375 36.435546875  C 6.34830729166667 37.526134672619  7.72005208333333 38.0714285714286  9.32421875 38  Z " fill-rule="nonzero" fill="#000000" stroke="none" transform="matrix(1 0 0 1 26 11 )" />
  </g>
</svg>