<?xml version="1.0" encoding="utf-8"?>
<svg version="1.1" xmlns:xlink="http://www.w3.org/1999/xlink" width="12px" height="24px" xmlns="http://www.w3.org/2000/svg">
  <g transform="matrix(1 0 0 1 -406 -374 )">
    <path d="M 11.7938144329897 11.4468937875752  C 11.9312714776632 11.6072144288577  12 11.7915831663327  12 12  C 12 12.2084168336673  11.9312714776632 12.3927855711423  11.7938144329897 12.5531062124248  L 2.18556701030928 23.7595190380762  C 2.04810996563574 23.9198396793587  1.89003436426117 24  1.71134020618557 24  C 1.53264604810997 24  1.3745704467354 23.9198396793587  1.23711340206186 23.7595190380762  L 0.206185567010309 22.5571142284569  C 0.0687285223367698 22.3967935871743  0 22.2124248496994  0 22.0040080160321  C 0 21.7955911823647  0.0687285223367698 21.6112224448898  0.206185567010309 21.4509018036072  L 8.30927835051546 12  L 0.206185567010309 2.54909819639279  C 0.0687285223367698 2.38877755511022  0 2.20440881763527  0 1.99599198396794  C 0 1.7875751503006  0.0687285223367698 1.60320641282565  0.206185567010309 1.44288577154308  L 1.23711340206186 0.240480961923848  C 1.3745704467354 0.0801603206412818  1.53264604810997 0  1.71134020618557 0  C 1.89003436426117 0  2.04810996563574 0.0801603206412818  2.18556701030928 0.240480961923848  L 11.7938144329897 11.4468937875752  Z " fill-rule="nonzero" fill="#797979" stroke="none" transform="matrix(1 0 0 1 406 374 )" />
  </g>
</svg>