<?xml version="1.0" encoding="utf-8"?>
<svg version="1.1" xmlns:xlink="http://www.w3.org/1999/xlink" width="8px" height="31px" xmlns="http://www.w3.org/2000/svg">
  <g transform="matrix(1 0 0 1 -418 -131 )">
    <path d="M 7.41666666666667 23.1619318181818  C 7.80555555555556 23.5729166666667  8 24.0719696969697  8 24.6590909090909  L 8 28.8863636363636  C 8 29.4734848484849  7.80555555555556 29.9725378787879  7.41666666666667 30.3835227272727  C 7.02777777777778 30.7945075757576  6.55555555555556 31  6 31  L 2 31  C 1.44444444444444 31  0.972222222222222 30.7945075757576  0.583333333333333 30.3835227272727  C 0.194444444444444 29.9725378787879  0 29.4734848484849  0 28.8863636363636  L 0 24.6590909090909  C 0 24.0719696969697  0.194444444444444 23.5729166666667  0.583333333333333 23.1619318181818  C 0.972222222222222 22.750946969697  1.44444444444444 22.5454545454545  2 22.5454545454545  L 6 22.5454545454545  C 6.55555555555556 22.5454545454545  7.02777777777778 22.750946969697  7.41666666666667 23.1619318181818  Z M 7.41666666666667 11.8892045454545  C 7.80555555555556 12.3001893939394  8 12.7992424242424  8 13.3863636363636  L 8 17.6136363636364  C 8 18.2007575757576  7.80555555555556 18.6998106060606  7.41666666666667 19.1107954545455  C 7.02777777777778 19.5217803030303  6.55555555555556 19.7272727272727  6 19.7272727272727  L 2 19.7272727272727  C 1.44444444444444 19.7272727272727  0.972222222222222 19.5217803030303  0.583333333333333 19.1107954545455  C 0.194444444444444 18.6998106060606  0 18.2007575757576  0 17.6136363636364  L 0 13.3863636363636  C 0 12.7992424242424  0.194444444444444 12.3001893939394  0.583333333333333 11.8892045454545  C 0.972222222222222 11.4782196969697  1.44444444444444 11.2727272727273  2 11.2727272727273  L 6 11.2727272727273  C 6.55555555555556 11.2727272727273  7.02777777777778 11.4782196969697  7.41666666666667 11.8892045454545  Z M 7.41666666666667 0.616477272727273  C 7.80555555555556 1.02746212121212  8 1.52651515151515  8 2.11363636363637  L 8 6.34090909090909  C 8 6.9280303030303  7.80555555555556 7.42708333333333  7.41666666666667 7.83806818181818  C 7.02777777777778 8.24905303030303  6.55555555555556 8.45454545454545  6 8.45454545454545  L 2 8.45454545454545  C 1.44444444444444 8.45454545454545  0.972222222222222 8.24905303030303  0.583333333333333 7.83806818181818  C 0.194444444444444 7.42708333333333  0 6.9280303030303  0 6.34090909090909  L 0 2.11363636363637  C 0 1.52651515151515  0.194444444444444 1.02746212121212  0.583333333333333 0.616477272727273  C 0.972222222222222 0.205492424242423  1.44444444444444 0  2 0  L 6 0  C 6.55555555555556 0  7.02777777777778 0.205492424242423  7.41666666666667 0.616477272727273  Z " fill-rule="nonzero" fill="#ffffff" stroke="none" transform="matrix(1 0 0 1 418 131 )" />
  </g>
</svg>