<?xml version="1.0" encoding="utf-8"?>
<svg version="1.1" xmlns:xlink="http://www.w3.org/1999/xlink" width="35px" height="35px" xmlns="http://www.w3.org/2000/svg">
  <g transform="matrix(1 0 0 1 -346 -119 )">
    <path d="M 2.5 28  L 2.5 31.8181818181818  L 22.5 31.8181818181818  L 22.5 28  L 2.5 28  Z M 2.5 16  L 2.5 19  L 22.5 19  L 22.5 16  L 2.5 16  Z M 32.578125 31.9176136363636  C 32.9427083333333 31.4535984848485  33.125 30.8901515151515  33.125 30.2272727272727  C 33.125 29.5643939393939  32.9427083333333 29.000946969697  32.578125 28.5369318181818  C 32.2135416666667 28.0729166666667  31.7708333333333 27.8409090909091  31.25 27.8409090909091  C 30.7291666666667 27.8409090909091  30.2864583333333 28.0729166666667  29.921875 28.5369318181818  C 29.5572916666667 29.000946969697  29.375 29.5643939393939  29.375 30.2272727272727  C 29.375 30.8901515151515  29.5572916666667 31.4535984848485  29.921875 31.9176136363636  C 30.2864583333333 32.3816287878788  30.7291666666667 32.6136363636364  31.25 32.6136363636364  C 31.7708333333333 32.6136363636364  32.2135416666667 32.3816287878788  32.578125 31.9176136363636  Z M 2.5 3.18181818181818  L 2.5 7  L 22.5 7  L 22.5 3.18181818181818  L 2.5 3.18181818181818  Z M 32.578125 19.1903409090909  C 32.9427083333333 18.7263257575758  33.125 18.1628787878788  33.125 17.5  C 33.125 16.8371212121212  32.9427083333333 16.2736742424242  32.578125 15.8096590909091  C 32.2135416666667 15.3456439393939  31.7708333333333 15.1136363636364  31.25 15.1136363636364  C 30.7291666666667 15.1136363636364  30.2864583333333 15.3456439393939  29.921875 15.8096590909091  C 29.5572916666667 16.2736742424242  29.375 16.8371212121212  29.375 17.5  C 29.375 18.1628787878788  29.5572916666667 18.7263257575758  29.921875 19.1903409090909  C 30.2864583333333 19.6543560606061  30.7291666666667 19.8863636363636  31.25 19.8863636363636  C 31.7708333333333 19.8863636363636  32.2135416666667 19.6543560606061  32.578125 19.1903409090909  Z M 32.578125 6.46306818181818  C 32.9427083333333 5.99905303030303  33.125 5.43560606060606  33.125 4.77272727272727  C 33.125 4.10984848484848  32.9427083333333 3.54640151515151  32.578125 3.08238636363636  C 32.2135416666667 2.61837121212121  31.7708333333333 2.38636363636364  31.25 2.38636363636364  C 30.7291666666667 2.38636363636364  30.2864583333333 2.61837121212121  29.921875 3.08238636363636  C 29.5572916666667 3.54640151515151  29.375 4.10984848484848  29.375 4.77272727272727  C 29.375 5.43560606060606  29.5572916666667 5.99905303030303  29.921875 6.46306818181818  C 30.2864583333333 6.92708333333333  30.7291666666667 7.15909090909091  31.25 7.15909090909091  C 31.7708333333333 7.15909090909091  32.2135416666667 6.92708333333333  32.578125 6.46306818181818  Z M 0 25  L 35 25  L 35 35  L 0 35  L 0 25  Z M 0 13  L 35 13  L 35 22  L 0 22  L 0 13  Z M 0 0  L 35 0  L 35 10  L 0 10  L 0 0  Z " fill-rule="nonzero" fill="#ffffff" stroke="none" transform="matrix(1 0 0 1 346 119 )" />
  </g>
</svg>