<?xml version="1.0" encoding="utf-8"?>
<svg version="1.1" xmlns:xlink="http://www.w3.org/1999/xlink" width="37px" height="38px" xmlns="http://www.w3.org/2000/svg">
  <g transform="matrix(1 0 0 1 -38 -983 )">
    <path d="M 56.5 983  C 66.86 983  75 991.36  75 1002  C 75 1012.64  66.86 1021  56.5 1021  C 46.14 1021  38 1012.64  38 1002  C 38 991.36  46.14 983  56.5 983  Z " fill-rule="nonzero" fill="#ffffff" stroke="none" />
    <path d="M 56.5 983.5  C 66.58 983.5  74.5 991.64  74.5 1002  C 74.5 1012.36  66.58 1020.5  56.5 1020.5  C 46.42 1020.5  38.5 1012.36  38.5 1002  C 38.5 991.64  46.42 983.5  56.5 983.5  Z " stroke-width="1" stroke="#797979" fill="none" />
  </g>
</svg>