<?xml version="1.0" encoding="utf-8"?>
<svg version="1.1" xmlns:xlink="http://www.w3.org/1999/xlink" width="24px" height="24px" xmlns="http://www.w3.org/2000/svg">
  <g transform="matrix(1 0 0 1 -76 -63 )">
    <path d="M 88 64  C 94.16 64  99 68.84  99 75  C 99 81.16  94.16 86  88 86  C 81.84 86  77 81.16  77 75  C 77 68.84  81.84 64  88 64  Z " fill-rule="nonzero" fill="#3086e4" stroke="none" />
    <path d="M 88 64  C 94.16 64  99 68.84  99 75  C 99 81.16  94.16 86  88 86  C 81.84 86  77 81.16  77 75  C 77 68.84  81.84 64  88 64  Z " stroke-width="2" stroke="#d0e4ea" fill="none" />
  </g>
</svg>