<?xml version="1.0" encoding="utf-8"?>
<svg version="1.1" xmlns:xlink="http://www.w3.org/1999/xlink" width="15px" height="24px" xmlns="http://www.w3.org/2000/svg">
  <g transform="matrix(1 0 0 1 -324 -374 )">
    <path d="M 9.13583252190847 23.8380681818182  C 9.04333008763389 23.9460227272727  8.93378773125609 24  8.80720545277507 24  L 6.29503407984421 24  C 6.16845180136319 24  6.0589094449854 23.9488636363636  5.96640701071081 23.8465909090909  C 5.87390457643622 23.7443181818182  5.82765335929893 23.6136363636364  5.82765335929893 23.4545454545455  L 5.82765335929893 17.8295454545455  L 1.62122687439143 17.8295454545455  C 1.49464459591042 17.8295454545455  1.38510223953262 17.7784090909091  1.29259980525803 17.6761363636364  C 1.20009737098345 17.5738636363636  1.15384615384615 17.4431818181818  1.15384615384615 17.2840909090909  L 1.15384615384615 15.5284090909091  C 1.15384615384615 15.3806818181818  1.20009737098345 15.2528409090909  1.29259980525803 15.1448863636364  C 1.38510223953262 15.0369318181818  1.49464459591042 14.9829545454545  1.62122687439143 14.9829545454545  L 5.82765335929893 14.9829545454545  L 5.82765335929893 13.5340909090909  L 1.62122687439143 13.5340909090909  C 1.49464459591042 13.5340909090909  1.38510223953262 13.4829545454545  1.29259980525803 13.3806818181818  C 1.20009737098345 13.2784090909091  1.15384615384615 13.1477272727273  1.15384615384615 12.9886363636364  L 1.15384615384615 11.2159090909091  C 1.15384615384615 11.0681818181818  1.20009737098345 10.9403409090909  1.29259980525803 10.8323863636364  C 1.38510223953262 10.7244318181818  1.49464459591042 10.6704545454545  1.62122687439143 10.6704545454545  L 4.74683544303798 10.6704545454545  L 0.0584225900681597 0.818181818181817  C -0.0194741966893866 0.636363636363636  -0.0194741966893866 0.454545454545451  0.0584225900681597 0.272727272727272  C 0.155793573515093 0.0909090909090908  0.292112950340798 0  0.467380720545278 0  L 3.30087633885102 0  C 3.4858812074002 0  3.62706913339825 0.102272727272728  3.72444011684518 0.306818181818183  L 6.86465433300876 7.55113636363636  C 7.04965920155794 7.98295454545454  7.32229795520935 8.69318181818182  7.682570593963 9.68181818181818  C 7.77994157740993 9.40909090909091  7.9284323271665 9.02272727272727  8.12804284323272 8.52272727272727  C 8.32765335929893 8.02272727272727  8.46153846153846 7.67613636363636  8.52969814995132 7.48295454545455  L 11.3193768257059 0.323863636363638  C 11.3972736124635 0.107954545454543  11.5384615384615 0  11.7429406037001 0  L 14.5326192794547 0  C 14.6981499513145 0  14.8296007789679 0.0909090909090908  14.9269717624148 0.272727272727272  C 15.014605647517 0.431818181818181  15.0194741966894 0.607954545454544  14.9415774099318 0.801136363636362  L 10.3700097370983 10.6704545454545  L 13.5102239532619 10.6704545454545  C 13.6368062317429 10.6704545454545  13.7463485881207 10.7244318181818  13.8388510223953 10.8323863636364  C 13.9313534566699 10.9403409090909  13.9776046738072 11.0681818181818  13.9776046738072 11.2159090909091  L 13.9776046738072 12.9886363636364  C 13.9776046738072 13.1477272727273  13.9313534566699 13.2784090909091  13.8388510223953 13.3806818181818  C 13.7463485881207 13.4829545454545  13.6368062317429 13.5340909090909  13.5102239532619 13.5340909090909  L 9.27458617332035 13.5340909090909  L 9.27458617332035 14.9829545454545  L 13.5102239532619 14.9829545454545  C 13.6368062317429 14.9829545454545  13.7463485881207 15.0369318181818  13.8388510223953 15.1448863636364  C 13.9313534566699 15.2528409090909  13.9776046738072 15.3806818181818  13.9776046738072 15.5284090909091  L 13.9776046738072 17.2840909090909  C 13.9776046738072 17.4431818181818  13.9313534566699 17.5738636363636  13.8388510223953 17.6761363636364  C 13.7463485881207 17.7784090909091  13.6368062317429 17.8295454545455  13.5102239532619 17.8295454545455  L 9.27458617332035 17.8295454545455  L 9.27458617332035 23.4545454545455  C 9.27458617332035 23.6022727272727  9.22833495618306 23.7301136363636  9.13583252190847 23.8380681818182  Z " fill-rule="nonzero" fill="#797979" stroke="none" transform="matrix(1 0 0 1 324 374 )" />
  </g>
</svg>